PathFileType	4	(X/Y/Z)	C:\Users\Graham\Documents\MATLAB\MOtoNMS_v2_2\MyData\ElaboratedData\S4\17-05-18\staticElaborations\Static1\Static1\\Static1.trc
DataRate	CameraRate	NumFrames	NumMarkers	Units	OrigDataRate	DataStartFrame
100	100	7	38	mm	100	2
Frame#	Time	V_Sacral			R_ASIS			L_ASIS			R_Knee_Lat			R_Knee_Med			R_Thigh_Upper			R_Thigh_Front			R_Thigh_Rear			L_Knee_Lat			L_Knee_Med			L_Thigh_Upper			L_Thigh_Front			L_Thigh_Rear			R_Ankle_Lat			R_Ankle_Med			R_Shank_Upper			R_Shank_Front			R_Shank_Rear			L_Ankle_Lat			L_Ankle_Med			L_Shank_Upper			L_Shank_Front			L_Shank_Rear			R_Heel			R_MTP1			R_MTP5			L_Heel			L_MTP1			L_MTP5			Clavicle			R_Acromium			L_Acromium			LAJC			RAJC			LHJC			RHJC			LKJC			RKJC		
		X1	Y1	Z1	X2	Y2	Z2	X3	Y3	Z3	X4	Y4	Z4	X5	Y5	Z5	X6	Y6	Z6	X7	Y7	Z7	X8	Y8	Z8	X9	Y9	Z9	X10	Y10	Z10	X11	Y11	Z11	X12	Y12	Z12	X13	Y13	Z13	X14	Y14	Z14	X15	Y15	Z15	X16	Y16	Z16	X17	Y17	Z17	X18	Y18	Z18	X19	Y19	Z19	X20	Y20	Z20	X21	Y21	Z21	X22	Y22	Z22	X23	Y23	Z23	X24	Y24	Z24	X25	Y25	Z25	X26	Y26	Z26	X27	Y27	Z27	X28	Y28	Z28	X29	Y29	Z29	X30	Y30	Z30	X31	Y31	Z31	X32	Y32	Z32	X33	Y33	Z33	X34	Y34	Z34	X35	Y35	Z35	X36	Y36	Z36	X37	Y37	Z37	X38	Y38	Z38	

66	0.650000	-143.494416	1012.093829	19.082845	56.945551	983.081457	150.958909	76.399194	976.363560	-83.482646	-50.891090	506.039503	204.830377	-46.068116	495.374235	96.316005	82.570908	738.768743	141.955307	33.422436	632.878834	91.594678	34.556512	625.032739	176.117486	-61.326811	512.684090	-158.576936	-76.688678	486.333112	-39.774424	87.137212	757.383964	-69.734584	36.850568	644.030849	-32.737652	51.196362	639.885373	-108.916126	-155.552792	103.352741	223.397411	-132.692358	119.391396	130.876684	-32.801086	328.727600	190.415281	-82.848497	207.355578	134.352314	-90.569688	225.846308	226.332910	-146.988977	96.788878	-152.744638	-125.350195	120.481299	-61.167930	-42.859804	367.337839	-125.311404	-81.801831	252.340885	-85.327602	-77.080667	254.946008	-166.278655	-226.104609	57.401286	179.868374	4.906557	64.669604	165.617798	-9.035126	58.450041	238.534158	-220.309519	55.106100	-104.960130	8.534558	60.848546	-83.054773	-15.774238	55.459244	-171.437193	9.928316	1394.217850	15.904136	-78.737070	1445.903242	205.766349	-74.217869	1440.465292	-177.845666	-136.169586	108.635089	-106.956284	-144.122575	111.372068	177.137048	1.080127	906.011174	-54.882445	-12.966123	910.861744	114.393046	-69.007745	499.508601	-99.175680	-48.479603	500.706869	150.573191	
67	0.660000	-143.418258	1012.055626	19.142967	57.054408	983.075112	150.988937	76.472454	976.358427	-83.450974	-50.716983	506.006748	204.829715	-45.846733	495.415885	96.384371	82.737562	738.761837	141.972806	33.603760	632.871698	91.596960	34.740698	625.023079	176.129694	-61.267206	512.684053	-158.547527	-76.639416	486.332240	-39.749025	87.206920	757.372713	-69.714220	36.951657	644.044247	-32.711058	51.260948	639.876875	-108.892463	-155.534827	103.365884	223.394530	-132.674136	119.391100	130.867313	-32.685642	328.685655	190.388716	-85.144476	212.938271	137.972739	-90.484193	225.826433	226.323629	-146.983168	96.800079	-152.736238	-125.342541	120.483446	-61.157182	-42.818667	367.336496	-125.283859	-81.776710	252.343859	-85.312848	-77.051181	254.949326	-166.259639	-226.097667	57.415921	179.867345	4.934546	64.703067	165.593780	-9.027739	58.447104	238.527238	-220.305592	55.114530	-104.954239	8.534566	60.844498	-83.050832	-15.773825	55.459984	-171.433635	9.980238	1394.207422	15.942642	-78.663366	1445.889361	205.820017	-74.178907	1440.451633	-177.796928	-136.162854	108.641763	-106.946710	-144.104482	111.378492	177.130921	1.167458	905.995925	-54.839475	-12.853114	910.845629	114.435114	-68.953311	499.508146	-99.148276	-48.281858	500.711316	150.607043	
68	0.670000	-143.332597	1012.022578	19.202261	57.172326	983.068627	151.016798	76.553321	976.354559	-83.424588	-50.556087	505.977610	204.829947	-45.689456	495.406332	96.408416	82.894919	738.748314	141.988046	33.772720	632.862499	91.597589	34.910355	625.010467	176.142587	-61.207425	512.683922	-158.520605	-76.588882	486.330578	-39.724726	87.279947	757.360955	-69.698587	37.102302	644.091439	-32.691768	51.328240	639.867923	-108.874274	-155.520914	103.378877	223.391266	-132.657424	119.390493	130.858341	-32.581570	328.648531	190.366166	-87.209838	218.086055	141.272466	-90.406160	225.809387	226.315487	-146.977038	96.811054	-152.728220	-125.334599	120.485406	-61.146749	-42.777402	367.334451	-125.258748	-81.750588	252.346815	-85.299353	-77.022035	254.952336	-166.242291	-226.090608	57.429499	179.865501	4.960810	64.734610	165.571750	-9.021726	58.443540	238.520879	-220.301728	55.123038	-104.948211	8.534862	60.840493	-83.046197	-15.773339	55.460755	-171.430208	10.026782	1394.196785	15.979170	-78.590214	1445.875546	205.873672	-74.152989	1440.433085	-177.748345	-136.155819	108.648230	-106.937484	-144.089169	111.384685	177.124803	1.261042	905.982454	-54.801343	-12.732787	910.830271	114.474415	-68.898153	499.507250	-99.122665	-48.122772	500.691971	150.619182	
69	0.680000	-143.237092	1011.995348	19.260110	57.298122	983.061520	151.042466	76.641524	976.352164	-83.403218	-50.410788	505.952025	204.831140	-45.589585	495.355248	96.395567	83.041191	738.727880	142.000936	33.925877	632.850717	91.596612	35.063286	624.994561	176.155562	-61.147333	512.683554	-158.496401	-76.536655	486.328326	-39.701185	87.356728	757.348810	-69.686884	37.292218	644.164811	-32.678921	51.398695	639.858638	-108.860874	-155.511077	103.391169	223.387823	-132.642682	119.389507	130.850099	-32.490481	328.616524	190.347983	-88.871601	222.329978	143.960192	-90.336756	225.795138	226.308586	-146.970592	96.821740	-152.720697	-125.326310	120.487155	-61.136772	-42.735874	367.331677	-125.236468	-81.724022	252.349269	-85.287425	-76.993104	254.954911	-166.226716	-226.083631	57.441483	179.863096	4.983556	64.761195	165.552995	-9.017247	58.439438	238.515381	-220.297963	55.131655	-104.942408	8.535605	60.836493	-83.040949	-15.772650	55.461537	-171.427072	10.068674	1394.185739	16.014089	-78.516950	1445.861336	205.927475	-74.139881	1440.409864	-177.699483	-136.148451	108.654448	-106.928735	-144.076879	111.390338	177.118961	1.360418	905.971229	-54.768337	-12.606262	910.815642	114.510458	-68.841994	499.505940	-99.098793	-48.000187	500.653637	150.613353	
70	0.690000	-143.132040	1011.973984	19.315973	57.430401	983.053394	151.065834	76.736224	976.351374	-83.386509	-50.281953	505.929742	204.833237	-45.534219	495.276935	96.356880	83.176002	738.700858	142.011282	34.061204	632.836082	91.593988	35.198923	624.975312	176.167845	-61.086835	512.682825	-158.474961	-76.482424	486.325742	-39.678123	87.437499	757.336433	-69.678099	37.506248	644.253355	-32.671224	51.472567	639.849165	-108.851304	-155.504931	103.402322	223.384391	-132.630145	119.388104	130.842838	-32.412811	328.589533	190.334092	-90.039440	225.407973	145.879615	-90.276439	225.783490	226.302980	-146.963877	96.832093	-152.713716	-125.317645	120.488712	-61.127356	-42.693987	367.328196	-125.217291	-81.697468	252.350875	-85.277282	-76.964302	254.956960	-166.212934	-226.076890	57.451568	179.860429	5.001367	64.780236	165.538499	-9.014247	58.434956	238.510967	-220.294297	55.140382	-104.937160	8.536900	60.832431	-83.035197	-15.771652	55.462274	-171.424336	10.106803	1394.174129	16.047761	-78.443042	1445.846118	205.981556	-74.138715	1440.382591	-177.649947	-136.140761	108.660403	-106.920536	-144.067538	111.395213	177.113615	1.464783	905.962507	-54.740519	-12.474746	910.801617	114.542878	-68.784630	499.504283	-99.076542	-47.908086	500.603339	150.595059	
71	0.700000	-143.018341	1011.957960	19.369424	57.567733	983.043965	151.086737	76.836099	976.352228	-83.374107	-50.168965	505.910374	204.836083	-45.507093	495.187469	96.304852	83.300321	738.668175	142.018761	34.178319	632.818620	91.589646	35.318254	624.952958	176.178548	-61.025893	512.681636	-158.456156	-76.426040	486.323090	-39.655456	87.522254	757.323994	-69.671208	37.727430	644.344907	-32.667186	51.549869	639.839653	-108.844495	-155.501772	103.412048	223.381132	-132.619834	119.386293	130.836713	-32.347866	328.567106	190.324060	-90.703148	227.262577	147.005915	-90.224955	225.774125	226.298677	-146.956990	96.842079	-152.707247	-125.308620	120.490128	-61.118557	-42.651695	367.324068	-125.201326	-81.671221	252.351452	-85.268994	-76.935596	254.958425	-166.200887	-226.070471	57.459698	179.857812	5.013402	64.790011	165.528812	-9.012480	58.430300	238.507747	-220.290703	55.149174	-104.932714	8.538774	60.828246	-83.029088	-15.770277	55.462887	-171.422052	10.142165	1394.161870	16.080541	-78.368111	1445.829237	206.036036	-74.147977	1440.352276	-177.599418	-136.132805	108.666104	-106.912902	-144.060803	111.399171	177.108922	1.573060	905.956308	-54.717741	-12.339398	910.787984	114.571478	-68.725966	499.502363	-99.055806	-47.838029	500.548922	150.570468	
72	0.710000	-142.897395	1011.946288	19.420183	57.708799	983.033074	151.104982	76.939488	976.354655	-83.365713	-50.069925	505.893445	204.839447	-45.491700	495.101752	96.251203	83.416227	738.631268	142.022930	34.278536	632.798663	91.583546	35.423590	624.927979	176.186751	-60.964539	512.679933	-158.439721	-76.367533	486.320593	-39.633382	87.610729	757.311658	-69.665387	37.940008	644.428324	-32.665374	51.630346	639.830226	-108.839455	-155.500708	103.420240	223.378176	-132.611585	119.384123	130.831776	-32.293980	328.548513	190.317205	-90.917796	228.005938	147.421465	-90.181420	225.766649	226.295632	-146.950057	96.851674	-152.701200	-125.299304	120.491474	-61.110379	-42.609016	367.319375	-125.188511	-81.645410	252.350988	-85.262461	-76.907007	254.959283	-166.190446	-226.064399	57.466049	179.855541	5.019502	64.789913	165.523994	-9.011563	58.425690	238.505707	-220.287140	55.157940	-104.929200	8.541167	60.823926	-83.022830	-15.768517	55.463288	-171.420206	10.175802	1394.148952	16.112763	-78.291915	1445.810111	206.091038	-74.165564	1440.320245	-177.547668	-136.124681	108.671574	-106.905790	-144.056146	111.402181	177.104976	1.683980	905.952408	-54.699688	-12.201241	910.774457	114.596252	-68.666036	499.500263	-99.036552	-47.780813	500.497599	150.545325	
